<svg width="240" height="240" viewBox="0 0 240 240" fill="none" xmlns="http://www.w3.org/2000/svg">
  <rect width="240" height="240" rx="120" fill="#E8F6FB"/>
  <circle cx="120" cy="94" r="40" fill="#D5A37E"/>
  <path d="M78 182C86 160 101 146 120 146C139 146 154 160 162 182" stroke="#192A33" stroke-width="12" stroke-linecap="round"/>
  <path d="M84 92C90 60 105 48 120 48C135 48 150 60 156 92" stroke="#1B2E39" stroke-width="12" stroke-linecap="round"/>
  <circle cx="106" cy="94" r="4" fill="#17252E"/>
  <circle cx="134" cy="94" r="4" fill="#17252E"/>
  <path d="M108 110C113 116 127 116 132 110" stroke="#A5664D" stroke-width="4" stroke-linecap="round"/>
  <rect x="166" y="120" width="40" height="72" rx="16" fill="#34D0FF"/>
  <rect x="174" y="130" width="24" height="52" rx="8" fill="#0D2532"/>
</svg>
