<svg width="240" height="240" viewBox="0 0 240 240" fill="none" xmlns="http://www.w3.org/2000/svg">
  <rect width="240" height="240" rx="120" fill="#F6EEE3"/>
  <circle cx="120" cy="88" r="40" fill="#E9C7A5"/>
  <path d="M76 218C80 178 96 152 120 152C144 152 160 178 164 218H76Z" fill="#2F2E2C"/>
  <path d="M77 95C84 58 103 44 120 44C137 44 156 58 163 95C153 82 142 76 120 76C98 76 87 82 77 95Z" fill="#2B2A28"/>
  <circle cx="106" cy="88" r="4" fill="#2B2A28"/>
  <circle cx="134" cy="88" r="4" fill="#2B2A28"/>
  <path d="M106 106C111 111 129 111 134 106" stroke="#B3755A" stroke-width="4" stroke-linecap="round"/>
  <path d="M168 170C183 155 192 134 194 112" stroke="#F28F3B" stroke-width="10" stroke-linecap="round"/>
  <circle cx="196" cy="104" r="10" fill="#F2D0A7"/>
</svg>
