<svg width="1200" height="2400" viewBox="0 0 1200 2400" fill="none" xmlns="http://www.w3.org/2000/svg">
  <defs>
    <linearGradient id="sky" x1="0" y1="0" x2="0" y2="1">
      <stop offset="0%" stop-color="#C6E8FF"/>
      <stop offset="45%" stop-color="#8EBBDE"/>
      <stop offset="100%" stop-color="#2B3B4E"/>
    </linearGradient>
    <linearGradient id="rock" x1="0" y1="0" x2="1" y2="1">
      <stop offset="0%" stop-color="#6D4E3D"/>
      <stop offset="100%" stop-color="#3D2C24"/>
    </linearGradient>
  </defs>
  <rect width="1200" height="2400" fill="url(#sky)"/>
  <path d="M-120 920C180 760 380 720 700 860C930 960 1060 880 1320 720V2480H-120V920Z" fill="#88A77A" opacity="0.55"/>
  <path d="M860 340L1210 390L1120 2480H640L700 620L860 340Z" fill="url(#rock)"/>
  <path d="M720 570L940 700L860 820L690 760L720 570Z" fill="#5D4133" opacity="0.75"/>
  <path d="M790 950L1010 1050L930 1200L770 1110L790 950Z" fill="#5D4133" opacity="0.75"/>
  <circle cx="980" cy="260" r="88" fill="#FFF8D6" opacity="0.92"/>
</svg>
